<svg xmlns="http://www.w3.org/2000/svg" xmlns:xlink="http://www.w3.org/1999/xlink" width="500" zoomAndPan="magnify" viewBox="0 0 375 374.999991" height="500" preserveAspectRatio="xMidYMid meet" version="1.0"><defs><clipPath id="df55ad2246"><path d="M 89 137 L 240 137 L 240 310.925781 L 89 310.925781 Z M 89 137 " clip-rule="nonzero"/></clipPath><clipPath id="21489f4fa9"><path d="M 55.734375 114 L 217 114 L 217 267 L 55.734375 267 Z M 55.734375 114 " clip-rule="nonzero"/></clipPath><clipPath id="8b597510d9"><path d="M 113 56.675781 L 213 56.675781 L 213 104 L 113 104 Z M 113 56.675781 " clip-rule="nonzero"/></clipPath><clipPath id="ea5a45e489"><path d="M 180 164 L 280 164 L 280 310.925781 L 180 310.925781 Z M 180 164 " clip-rule="nonzero"/></clipPath><clipPath id="141c0f1694"><path d="M 249 149 L 310.734375 149 L 310.734375 267 L 249 267 Z M 249 149 " clip-rule="nonzero"/></clipPath><clipPath id="538c437471"><path d="M 89 137 L 240 137 L 240 310.925781 L 89 310.925781 Z M 89 137 " clip-rule="nonzero"/></clipPath></defs><g clip-path="url(#df55ad2246)"><path fill="#e0e721" d="M 222.660156 137.410156 L 239.410156 158.039062 C 198.585938 187.945312 215.953125 291.960938 170.6875 310.785156 C 138.660156 307.636719 110.09375 292.605469 89.476562 270.167969 C 130.753906 220.585938 173.441406 173.382812 222.65625 137.410156 Z M 222.660156 137.410156 " fill-opacity="1" fill-rule="evenodd"/></g><g clip-path="url(#21489f4fa9)"><path fill="#e0e721" d="M 198.589844 114.210938 L 216.636719 132.253906 C 156.847656 182.9375 119.019531 225.398438 86.488281 265.863281 L 85.953125 266.175781 C 67.207031 243.992188 55.90625 215.320312 55.90625 184.027344 C 55.90625 181.5 55.984375 178.984375 56.132812 176.492188 C 78.769531 130.8125 163.816406 145.785156 198.589844 114.214844 Z M 198.589844 114.210938 " fill-opacity="1" fill-rule="evenodd"/></g><path fill="#e0e721" d="M 123.269531 79.191406 C 151.6875 79.476562 187.789062 97.757812 191.296875 108.210938 C 190.144531 134.449219 69.53125 126.757812 56.839844 170.0625 L 56.664062 170.082031 C 60.648438 133.542969 80.101562 101.628906 108.34375 81.042969 C 112.953125 79.703125 118.011719 79.136719 123.265625 79.191406 Z M 123.269531 79.191406 " fill-opacity="1" fill-rule="evenodd"/><g clip-path="url(#8b597510d9)"><path fill="#e0e721" d="M 183.265625 56.664062 C 189.65625 56.664062 195.953125 57.136719 202.089844 58.046875 C 221.039062 78.554688 210.929688 96.980469 200.753906 102.613281 C 192.070312 108.796875 169.675781 70.078125 113.519531 77.472656 C 133.558594 64.320312 157.519531 56.664062 183.265625 56.664062 Z M 183.265625 56.664062 " fill-opacity="1" fill-rule="evenodd"/></g><g clip-path="url(#ea5a45e489)"><path fill="#e0e721" d="M 241.324219 164.796875 C 242.484375 164.816406 243.699219 165.050781 244.980469 165.488281 C 261.582031 178.511719 291.945312 241.195312 274.199219 272.4375 C 274.195312 272.4375 274.203125 272.453125 274.199219 272.457031 C 251.082031 296.035156 218.867188 310.667969 183.261719 310.667969 C 182.28125 310.667969 181.3125 310.667969 180.339844 310.644531 C 218.695312 282.925781 210.34375 172.402344 241.320312 164.792969 Z M 241.324219 164.796875 " fill-opacity="1" fill-rule="evenodd"/></g><g clip-path="url(#141c0f1694)"><path fill="#e0e721" d="M 271.972656 149.429688 C 285.914062 149.871094 302.1875 157.179688 309.84375 173.070312 L 310.246094 174.03125 C 310.503906 177.328125 310.648438 180.660156 310.648438 184.023438 C 310.648438 215.53125 299.179688 244.375 280.203125 266.621094 C 297.765625 211.480469 244.324219 163.003906 250.136719 157.613281 C 253.976562 152.046875 262.429688 149.125 271.972656 149.429688 Z M 271.972656 149.429688 " fill-opacity="1" fill-rule="evenodd"/></g><path fill="#e0e721" d="M 276.011719 96.765625 C 294.007812 115.882812 306.1875 140.546875 309.648438 167.921875 C 296.109375 145.277344 275.914062 137.0625 243.269531 154.179688 L 226.519531 133.125 C 237.453125 123.253906 260.519531 106.214844 276.011719 96.765625 Z M 276.011719 96.765625 " fill-opacity="1" fill-rule="evenodd"/><path fill="#e0e721" d="M 207.597656 58.984375 C 232.550781 63.8125 254.90625 75.941406 272.371094 93.042969 L 272.058594 93.601562 C 253.6875 101.964844 237.976562 115.675781 221.785156 128.394531 L 202.46875 110.351562 C 215.054688 97.65625 224.765625 83.796875 207.597656 58.984375 Z M 207.597656 58.984375 " fill-opacity="1" fill-rule="evenodd"/><g clip-path="url(#538c437471)"><path fill="#e0e721" d="M 222.660156 137.410156 L 239.410156 158.039062 C 198.585938 187.945312 215.953125 291.960938 170.6875 310.785156 C 138.660156 307.636719 110.09375 292.605469 89.476562 270.167969 C 130.753906 220.585938 173.441406 173.382812 222.65625 137.410156 Z M 222.660156 137.410156 " fill-opacity="1" fill-rule="evenodd"/></g></svg>