<svg xmlns="http://www.w3.org/2000/svg" xmlns:xlink="http://www.w3.org/1999/xlink" width="500" zoomAndPan="magnify" viewBox="0 0 375 374.999991" height="500" preserveAspectRatio="xMidYMid meet" version="1.0"><defs><clipPath id="e9540e81bc"><path d="M 60.382812 69.875 L 319 69.875 L 319 294.875 L 60.382812 294.875 Z M 60.382812 69.875 " clip-rule="nonzero"/></clipPath></defs><g clip-path="url(#e9540e81bc)"><path fill="#e0e721" d="M 298.792969 89.964844 C 271.980469 63.15625 228.4375 63.15625 201.628906 89.964844 L 189.769531 101.824219 L 177.914062 89.964844 C 151.101562 63.15625 107.558594 63.15625 80.75 89.964844 C 53.9375 116.777344 53.9375 160.320312 80.75 187.128906 L 187.464844 293.847656 C 188.058594 294.4375 188.914062 294.769531 189.769531 294.769531 C 190.628906 294.769531 191.484375 294.4375 192.078125 293.847656 L 298.792969 187.128906 C 325.605469 160.320312 325.605469 116.777344 298.792969 89.964844 Z M 294.179688 182.519531 L 189.769531 286.929688 L 85.359375 182.519531 C 61.117188 158.277344 61.117188 118.816406 85.359375 94.578125 C 97.019531 82.851562 112.699219 76.460938 129.363281 76.460938 C 146.03125 76.460938 161.644531 82.917969 173.367188 94.578125 L 187.464844 108.738281 C 188.71875 109.992188 190.824219 109.992188 192.078125 108.738281 L 206.238281 94.578125 C 230.480469 70.335938 269.941406 70.335938 294.179688 94.578125 C 318.421875 118.816406 318.421875 158.277344 294.179688 182.519531 Z M 231.601562 162.691406 L 209.402344 162.691406 L 209.402344 140.492188 C 209.402344 135.089844 204.988281 130.675781 199.585938 130.675781 L 179.890625 130.675781 C 174.488281 130.675781 170.074219 135.089844 170.074219 140.492188 L 170.074219 162.691406 L 147.875 162.691406 C 142.472656 162.691406 138.058594 167.105469 138.058594 172.503906 L 138.058594 192.203125 C 138.058594 197.605469 142.472656 202.015625 147.875 202.015625 L 170.074219 202.015625 L 170.074219 224.21875 C 170.074219 229.617188 174.488281 234.03125 179.890625 234.03125 L 199.585938 234.03125 C 204.988281 234.03125 209.402344 229.617188 209.402344 224.21875 L 209.402344 202.015625 L 231.601562 202.015625 C 237.003906 202.015625 241.417969 197.605469 241.417969 192.203125 L 241.417969 172.503906 C 241.417969 167.105469 237.003906 162.691406 231.601562 162.691406 Z M 234.894531 192.203125 C 234.894531 194.046875 233.378906 195.496094 231.601562 195.496094 L 206.171875 195.496094 C 204.394531 195.496094 202.945312 196.945312 202.945312 198.722656 L 202.945312 224.152344 C 202.945312 225.996094 201.429688 227.445312 199.652344 227.445312 L 179.890625 227.445312 C 178.046875 227.445312 176.597656 225.929688 176.597656 224.152344 L 176.597656 198.722656 C 176.597656 196.945312 175.148438 195.496094 173.367188 195.496094 L 147.941406 195.496094 C 146.097656 195.496094 144.648438 193.980469 144.648438 192.203125 L 144.648438 172.503906 C 144.648438 170.660156 146.164062 169.210938 147.941406 169.210938 L 173.367188 169.210938 C 175.148438 169.210938 176.597656 167.761719 176.597656 165.984375 L 176.597656 140.558594 C 176.597656 138.710938 178.109375 137.261719 179.890625 137.261719 L 199.585938 137.261719 C 201.429688 137.261719 202.878906 138.777344 202.878906 140.558594 L 202.878906 165.984375 C 202.878906 167.761719 204.328125 169.210938 206.109375 169.210938 L 231.535156 169.210938 C 233.378906 169.210938 234.828125 170.726562 234.828125 172.503906 L 234.828125 192.203125 Z M 270.863281 95.628906 C 269.414062 94.578125 267.371094 94.90625 266.316406 96.355469 C 265.261719 97.804688 265.59375 99.847656 267.105469 100.902344 C 267.371094 101.097656 292.140625 119.214844 283.839844 148.265625 C 283.3125 149.976562 284.367188 151.820312 286.078125 152.28125 C 286.410156 152.347656 286.671875 152.414062 287 152.414062 C 288.449219 152.414062 289.703125 151.492188 290.164062 150.042969 C 299.582031 116.644531 271.125 95.828125 270.863281 95.628906 Z M 282.917969 159.460938 C 281.335938 158.605469 279.359375 159.132812 278.503906 160.714844 C 277.121094 163.152344 275.539062 165.589844 273.761719 168.027344 C 272.707031 169.476562 273.035156 171.519531 274.484375 172.570312 C 275.078125 172.96875 275.738281 173.164062 276.394531 173.164062 C 277.382812 173.164062 278.371094 172.703125 279.03125 171.847656 C 280.941406 169.210938 282.652344 166.511719 284.167969 163.875 C 285.023438 162.296875 284.496094 160.320312 282.917969 159.460938 Z M 282.917969 159.460938 " fill-opacity="1" fill-rule="nonzero"/></g></svg>