<svg xmlns="http://www.w3.org/2000/svg" xmlns:xlink="http://www.w3.org/1999/xlink" width="500" zoomAndPan="magnify" viewBox="0 0 375 374.999991" height="500" preserveAspectRatio="xMidYMid meet" version="1.0"><defs><clipPath id="c68925eb9a"><path d="M 45.320312 66.089844 L 315 66.089844 L 315 297.839844 L 45.320312 297.839844 Z M 45.320312 66.089844 " clip-rule="nonzero"/></clipPath></defs><g clip-path="url(#c68925eb9a)"><path fill="#e0e721" d="M 310.597656 145.699219 L 303.265625 132.5625 C 302.796875 131.699219 291.195312 110.496094 286.929688 103.425781 C 281.394531 94.160156 280.0625 92.625 272.792969 84.359375 L 271.863281 83.292969 C 268.996094 80.023438 260.058594 71.222656 259.726562 70.890625 L 257.925781 69.023438 C 255.394531 66.421875 251.660156 65.488281 248.191406 66.488281 C 244.726562 67.488281 242.125 70.355469 241.390625 73.890625 L 240.257812 79.425781 C 240.058594 79.957031 239.925781 80.492188 239.65625 81.023438 L 239.457031 81.558594 C 239.324219 81.957031 239.125 82.425781 238.925781 82.824219 L 238.925781 82.890625 L 238.722656 83.359375 C 238.457031 83.890625 238.257812 84.425781 237.992188 84.957031 L 237.789062 85.425781 C 237.589844 85.824219 237.390625 86.226562 237.191406 86.558594 C 237.058594 86.757812 236.992188 86.957031 236.855469 87.160156 C 236.65625 87.492188 236.457031 87.890625 236.257812 88.226562 L 235.925781 88.757812 C 235.65625 89.226562 235.324219 89.625 235.058594 90.09375 C 234.921875 90.292969 234.789062 90.492188 234.589844 90.757812 C 234.390625 91.027344 234.191406 91.292969 233.992188 91.558594 C 233.855469 91.757812 233.65625 91.960938 233.523438 92.226562 C 233.390625 92.425781 233.191406 92.625 233.058594 92.828125 L 232.523438 93.425781 C 232.390625 93.625 232.191406 93.757812 232.058594 93.960938 L 231.457031 94.625 C 231.191406 94.894531 230.988281 95.160156 230.722656 95.425781 L 230.324219 95.828125 C 229.390625 96.691406 228.457031 97.558594 227.523438 98.359375 L 227.054688 98.761719 L 226.257812 99.359375 C 226.054688 99.492188 225.921875 99.628906 225.722656 99.761719 L 225.65625 99.828125 C 225.390625 100.027344 225.121094 100.226562 224.921875 100.359375 C 224.921875 100.359375 224.855469 100.425781 224.789062 100.425781 C 224.121094 100.894531 223.390625 101.359375 222.65625 101.828125 L 222.320312 102.027344 C 221.988281 102.226562 221.65625 102.425781 221.253906 102.628906 L 220.988281 102.761719 C 219.789062 103.425781 218.589844 103.960938 217.386719 104.496094 L 217.253906 104.5625 C 215.519531 105.292969 213.789062 105.894531 211.921875 106.359375 L 211.855469 106.359375 C 209.988281 106.828125 208.121094 107.226562 206.1875 107.429688 C 200.917969 108.027344 195.71875 107.695312 190.585938 106.292969 L 188.453125 99.160156 C 185.519531 89.558594 177.25 82.425781 167.382812 80.890625 C 162.714844 80.15625 158.113281 82.691406 156.179688 87.027344 L 144.644531 113.160156 C 144.644531 113.230469 144.644531 113.230469 144.578125 113.296875 C 144.179688 114.363281 143.78125 115.296875 143.644531 115.5625 C 143.445312 115.894531 143.179688 116.363281 141.914062 119.363281 C 141.847656 119.429688 141.847656 119.5625 141.777344 119.628906 L 141.246094 121.296875 C 140.644531 122.828125 140.113281 124.363281 139.511719 125.964844 C 138.777344 128.097656 138.046875 130.363281 136.910156 132.765625 C 136.910156 132.832031 136.84375 132.898438 136.84375 132.964844 L 136.511719 133.765625 C 136.246094 134.429688 135.980469 135.03125 135.710938 135.699219 L 135.113281 137.097656 C 134.910156 137.632812 134.644531 138.164062 134.445312 138.632812 L 133.710938 140.296875 C 133.511719 140.765625 133.3125 141.230469 133.113281 141.632812 L 132.910156 142.03125 C 132.710938 142.433594 132.511719 142.832031 132.3125 143.300781 C 132.042969 143.832031 131.84375 144.300781 131.578125 144.832031 L 129.175781 149.699219 L 124.84375 157.765625 C 123.578125 160.167969 122.242188 162.300781 120.710938 164.703125 C 120.109375 165.636719 119.511719 166.636719 118.910156 167.570312 C 118.644531 168.035156 118.308594 168.433594 118.042969 168.902344 L 117.578125 169.570312 C 117.175781 170.167969 116.777344 170.769531 116.441406 171.300781 L 115.910156 172.101562 C 115.507812 172.703125 115.109375 173.300781 114.710938 173.835938 L 114.242188 174.503906 C 112.84375 176.503906 111.441406 178.503906 109.976562 180.4375 L 109.640625 180.902344 C 109.175781 181.503906 108.707031 182.101562 108.242188 182.703125 L 107.773438 183.304688 C 107.308594 183.902344 106.839844 184.503906 106.308594 185.171875 L 106.109375 185.371094 C 104.507812 187.371094 102.839844 189.371094 101.175781 191.304688 L 100.839844 191.703125 C 100.308594 192.304688 99.839844 192.90625 99.308594 193.503906 L 98.90625 193.972656 L 97.308594 195.773438 C 91.90625 201.707031 86.171875 207.375 80.171875 212.640625 L 55.96875 233.976562 C 45.035156 243.578125 42.300781 259.113281 48.835938 274.449219 C 50.835938 279.25 53.503906 283.382812 56.96875 287.183594 C 63.035156 293.917969 71.503906 297.71875 81.640625 298.183594 C 82.371094 298.183594 83.039062 298.25 83.773438 298.25 C 92.105469 298.25 100.773438 295.984375 108.375 291.714844 L 243.324219 216.574219 L 263.992188 205.304688 C 265.726562 204.441406 292.53125 190.972656 300.398438 184.035156 L 300.929688 183.570312 C 309 176.503906 310.664062 175.035156 313.53125 167.769531 C 315.601562 162.5 316.066406 153.699219 310.597656 145.699219 Z M 231.054688 103.761719 C 231.191406 103.628906 231.324219 103.5625 231.457031 103.425781 L 231.589844 103.292969 C 232.722656 102.359375 233.789062 101.425781 234.921875 100.292969 L 235.324219 99.894531 C 235.589844 99.628906 235.925781 99.292969 236.191406 98.960938 C 236.324219 98.828125 236.457031 98.625 236.589844 98.492188 L 236.789062 98.292969 C 236.992188 98.09375 237.191406 97.828125 237.390625 97.625 L 237.457031 97.558594 C 237.589844 97.425781 237.65625 97.292969 237.789062 97.160156 L 238.058594 96.894531 C 238.257812 96.691406 238.457031 96.425781 238.65625 96.226562 C 238.859375 95.960938 239.058594 95.761719 239.257812 95.425781 C 239.457031 95.160156 239.65625 94.828125 239.925781 94.492188 C 240.058594 94.292969 240.257812 94.027344 240.390625 93.828125 C 240.722656 93.292969 241.058594 92.828125 241.390625 92.292969 L 241.722656 91.691406 C 241.992188 91.292969 242.191406 90.894531 242.457031 90.425781 C 242.589844 90.226562 242.726562 89.960938 242.859375 89.757812 C 243.125 89.292969 243.324219 88.890625 243.589844 88.425781 L 243.65625 88.292969 L 243.859375 87.890625 C 244.191406 87.292969 244.457031 86.691406 244.726562 86.027344 L 244.925781 85.492188 L 244.925781 85.425781 C 245.125 84.957031 245.324219 84.425781 245.523438 83.957031 L 245.792969 83.359375 C 246.058594 82.757812 246.257812 82.089844 246.457031 81.425781 C 246.457031 81.359375 246.457031 81.359375 246.523438 81.292969 C 246.523438 81.15625 246.589844 81.089844 246.589844 80.957031 L 247.792969 75.222656 C 248.125 73.558594 249.457031 72.957031 249.992188 72.824219 C 250.527344 72.691406 251.925781 72.421875 253.125 73.625 L 254.992188 75.492188 C 255.058594 75.558594 264.128906 84.492188 266.859375 87.558594 L 267.792969 88.625 C 275.0625 96.894531 275.996094 97.960938 281.195312 106.695312 C 285.394531 113.695312 297.265625 135.429688 297.398438 135.699219 L 303.664062 146.832031 C 298.996094 149.433594 287.796875 155.632812 272.726562 164.035156 C 255.859375 158.5 243.523438 146.765625 236.125 129.296875 C 231.191406 117.5625 230.125 107.027344 229.988281 104.5625 C 230.054688 104.496094 230.125 104.496094 230.191406 104.425781 C 230.457031 104.226562 230.789062 104.027344 231.054688 103.761719 Z M 162.183594 89.625 C 162.914062 88.027344 164.582031 87.09375 166.316406 87.359375 C 173.714844 88.492188 179.917969 93.894531 182.117188 101.027344 L 182.917969 103.5625 C 175.851562 101.492188 165.316406 99.359375 156.914062 101.628906 Z M 60.371094 238.710938 L 84.574219 217.441406 C 90.707031 212.039062 96.640625 206.171875 102.175781 200.039062 C 102.441406 199.707031 102.707031 199.4375 103.042969 199.105469 C 107.507812 200.039062 111.640625 200.4375 115.375 200.4375 C 139.644531 200.4375 150.179688 183.4375 154.582031 176.371094 L 155.046875 175.636719 C 156.78125 172.835938 160.78125 163.96875 167.25 148.566406 C 167.984375 146.898438 167.183594 144.964844 165.449219 144.230469 C 163.78125 143.5 161.847656 144.300781 161.113281 146.03125 C 153.378906 164.566406 150.445312 170.433594 149.445312 172.167969 L 148.980469 172.902344 C 144.378906 180.304688 134.046875 197.039062 108.042969 193.304688 C 109.175781 191.972656 110.242188 190.636719 111.308594 189.371094 L 111.507812 189.171875 C 111.976562 188.570312 112.507812 187.902344 112.976562 187.304688 L 113.441406 186.703125 C 113.910156 186.105469 114.375 185.4375 114.84375 184.835938 L 115.242188 184.371094 C 116.710938 182.371094 118.242188 180.304688 119.644531 178.238281 L 120.109375 177.570312 L 121.308594 175.769531 L 121.84375 174.96875 L 123.042969 173.167969 L 123.511719 172.503906 C 123.84375 172.035156 124.109375 171.570312 124.445312 171.035156 C 125.109375 170.035156 125.644531 169.035156 126.242188 168.101562 C 127.84375 165.566406 129.246094 163.367188 130.578125 160.835938 L 133.710938 155.167969 L 137.578125 147.566406 C 137.84375 147.03125 138.046875 146.5 138.3125 146.03125 C 138.511719 145.632812 138.710938 145.164062 138.914062 144.765625 L 139.113281 144.367188 C 139.3125 143.898438 139.511719 143.433594 139.777344 142.964844 L 140.511719 141.296875 C 140.777344 140.765625 140.980469 140.230469 141.179688 139.699219 L 141.78125 138.230469 L 142.578125 136.230469 L 142.914062 135.363281 C 144.113281 132.699219 144.980469 130.230469 145.714844 128.03125 C 146.246094 126.496094 146.714844 125.03125 147.3125 123.628906 C 147.3125 123.5625 147.378906 123.496094 147.378906 123.429688 L 147.914062 121.761719 C 148.980469 119.363281 149.246094 118.828125 149.3125 118.695312 C 149.582031 118.296875 149.582031 118.296875 150.582031 115.695312 L 151.582031 113.429688 C 155.246094 105.5625 167.117188 106.5625 176.316406 108.695312 C 174.984375 111.960938 172.183594 119.097656 168.78125 127.363281 C 168.117188 129.03125 168.914062 130.964844 170.582031 131.628906 C 170.984375 131.765625 171.382812 131.898438 171.847656 131.898438 C 173.183594 131.898438 174.382812 131.097656 174.917969 129.832031 C 178.582031 120.894531 181.585938 113.296875 182.785156 110.429688 C 184.050781 110.828125 185.183594 111.226562 186.050781 111.5625 C 186.183594 111.628906 186.316406 111.761719 186.453125 111.828125 C 186.585938 111.894531 186.785156 111.960938 186.917969 112.027344 C 193.453125 114.09375 200.1875 114.761719 206.921875 113.960938 C 209.121094 113.695312 211.253906 113.296875 213.453125 112.695312 L 213.519531 112.695312 C 215.65625 112.160156 217.722656 111.429688 219.722656 110.5625 L 219.921875 110.496094 C 221.1875 109.960938 222.523438 109.292969 223.722656 108.628906 C 224.324219 113.5625 225.921875 122.230469 229.921875 131.765625 C 237.191406 149.03125 249.324219 161.566406 265.195312 168.367188 C 231.523438 187.171875 183.25 214.175781 144.914062 236.109375 C 87.039062 269.113281 56.035156 273.3125 55.703125 273.3125 L 55.636719 273.3125 C 55.367188 272.78125 55.101562 272.246094 54.902344 271.648438 C 49.566406 259.046875 51.636719 246.378906 60.371094 238.710938 Z M 307.464844 165.167969 C 305.132812 170.96875 304.53125 171.503906 296.597656 178.4375 L 296.0625 178.902344 C 288.730469 185.371094 261.261719 199.105469 260.992188 199.238281 C 260.925781 199.238281 260.925781 199.304688 260.859375 199.304688 L 240.125 210.640625 L 105.109375 285.714844 C 87.441406 295.582031 69.972656 291.582031 61.835938 282.582031 C 60.902344 281.582031 60.035156 280.515625 59.234375 279.382812 C 68.171875 277.714844 98.109375 270.3125 148.113281 241.710938 C 207.855469 207.574219 291.730469 160.96875 306.800781 152.632812 C 308.867188 157.234375 308.664062 162.035156 307.464844 165.167969 Z M 307.464844 165.167969 " fill-opacity="1" fill-rule="nonzero"/></g></svg>