<svg xmlns="http://www.w3.org/2000/svg" xmlns:xlink="http://www.w3.org/1999/xlink" width="500" zoomAndPan="magnify" viewBox="0 0 375 374.999991" height="500" preserveAspectRatio="xMidYMid meet" version="1.0"><defs><clipPath id="b734f51c6e"><path d="M 94.257812 91.59375 L 256.257812 91.59375 L 256.257812 248.34375 L 94.257812 248.34375 Z M 94.257812 91.59375 " clip-rule="nonzero"/></clipPath></defs><g clip-path="url(#b734f51c6e)"><path fill="#e0e721" d="M 182.445312 91.582031 C 182.972656 91.582031 183.324219 91.757812 183.679688 92.109375 C 184.03125 92.460938 184.207031 92.8125 184.207031 93.34375 L 184.207031 123.285156 C 184.207031 123.8125 184.03125 124.167969 183.679688 124.519531 L 138.234375 170.316406 L 183.855469 215.757812 C 184.207031 216.109375 184.382812 216.460938 184.382812 216.992188 L 184.382812 239.359375 C 184.382812 239.886719 184.03125 240.59375 183.5 240.769531 L 172.230469 247.992188 C 171.699219 248.34375 171.171875 248.34375 170.644531 248.167969 C 170.46875 248.167969 170.113281 247.992188 169.9375 247.816406 L 94.90625 171.371094 C 94.199219 170.667969 94.199219 169.609375 94.90625 168.90625 L 169.761719 92.460938 C 170.113281 92.109375 170.46875 91.933594 170.996094 91.933594 Z M 180.683594 122.582031 L 180.683594 95.105469 L 171.699219 95.457031 L 98.25 170.136719 L 171.347656 244.46875 L 180.683594 238.480469 L 180.683594 217.871094 L 134.710938 171.546875 C 134.007812 170.84375 134.007812 169.785156 134.710938 169.082031 Z M 254.484375 91.582031 C 255.011719 91.582031 255.367188 91.757812 255.71875 92.109375 C 256.070312 92.460938 256.246094 92.8125 256.246094 93.34375 L 256.246094 123.285156 C 256.246094 123.8125 256.070312 124.167969 255.71875 124.519531 L 210.273438 170.316406 L 255.71875 215.757812 C 256.070312 216.109375 256.246094 216.460938 256.246094 216.992188 L 256.246094 239.359375 C 256.246094 239.886719 255.894531 240.59375 255.367188 240.769531 L 244.09375 247.992188 C 243.5625 248.34375 243.035156 248.34375 242.507812 248.167969 C 242.332031 248.167969 241.980469 247.992188 241.804688 247.816406 L 166.769531 171.371094 C 166.0625 170.667969 166.0625 169.609375 166.769531 168.90625 L 241.804688 92.460938 C 242.15625 92.109375 242.507812 91.933594 243.035156 91.933594 Z M 252.722656 122.582031 L 252.722656 95.105469 L 243.742188 95.457031 L 170.292969 170.136719 L 243.386719 244.46875 L 252.722656 238.480469 L 252.722656 217.871094 L 206.574219 171.722656 C 205.871094 171.019531 205.871094 169.960938 206.574219 169.257812 Z M 252.722656 122.582031 " fill-opacity="1" fill-rule="nonzero"/></g></svg>