<svg xmlns="http://www.w3.org/2000/svg" xmlns:xlink="http://www.w3.org/1999/xlink" width="500" zoomAndPan="magnify" viewBox="0 0 375 374.999991" height="500" preserveAspectRatio="xMidYMid meet" version="1.0"><defs><clipPath id="ea363c0809"><path d="M 81 78.726562 L 293.839844 78.726562 L 293.839844 284.226562 L 81 284.226562 Z M 81 78.726562 " clip-rule="nonzero"/></clipPath></defs><g clip-path="url(#ea363c0809)"><path fill="#ffffff" d="M 196.832031 78.726562 C 197.527344 78.726562 197.988281 78.960938 198.453125 79.421875 C 198.914062 79.882812 199.148438 80.34375 199.148438 81.039062 L 199.148438 120.289062 C 199.148438 120.984375 198.914062 121.445312 198.453125 121.90625 L 138.726562 181.941406 L 198.683594 241.511719 C 199.148438 241.972656 199.378906 242.433594 199.378906 243.128906 L 199.378906 272.453125 C 199.378906 273.144531 198.914062 274.070312 198.222656 274.300781 L 183.40625 283.765625 C 182.710938 284.226562 182.015625 284.226562 181.320312 283.996094 C 181.089844 283.996094 180.628906 283.765625 180.394531 283.535156 L 81.78125 183.324219 C 80.855469 182.402344 80.855469 181.015625 81.78125 180.09375 L 180.164062 79.882812 C 180.628906 79.421875 181.089844 79.191406 181.785156 79.191406 Z M 194.515625 119.367188 L 194.515625 83.347656 L 182.710938 83.808594 L 86.179688 181.710938 L 182.246094 279.148438 L 194.515625 271.296875 L 194.515625 244.28125 L 134.097656 183.554688 C 133.171875 182.632812 133.171875 181.246094 134.097656 180.324219 Z M 291.511719 78.726562 C 292.207031 78.726562 292.671875 78.960938 293.132812 79.421875 C 293.597656 79.882812 293.828125 80.34375 293.828125 81.039062 L 293.828125 120.289062 C 293.828125 120.984375 293.597656 121.445312 293.132812 121.90625 L 233.40625 181.941406 L 293.132812 241.511719 C 293.597656 241.972656 293.828125 242.433594 293.828125 243.128906 L 293.828125 272.453125 C 293.828125 273.144531 293.363281 274.070312 292.671875 274.300781 L 277.855469 283.765625 C 277.160156 284.226562 276.464844 284.226562 275.769531 283.996094 C 275.539062 283.996094 275.078125 283.765625 274.84375 283.535156 L 176.230469 183.324219 C 175.304688 182.402344 175.304688 181.015625 176.230469 180.09375 L 274.84375 79.882812 C 275.308594 79.421875 275.769531 79.191406 276.464844 79.191406 Z M 289.199219 119.367188 L 289.199219 83.347656 L 277.390625 83.808594 L 180.859375 181.710938 L 276.929688 279.148438 L 289.199219 271.296875 L 289.199219 244.28125 L 228.546875 183.789062 C 227.621094 182.863281 227.621094 181.476562 228.546875 180.554688 Z M 289.199219 119.367188 " fill-opacity="1" fill-rule="nonzero"/></g></svg>