<svg xmlns="http://www.w3.org/2000/svg" xmlns:xlink="http://www.w3.org/1999/xlink" width="500" zoomAndPan="magnify" viewBox="0 0 375 374.999991" height="500" preserveAspectRatio="xMidYMid meet" version="1.0"><defs><clipPath id="4b6a2ab994"><path d="M 46.261719 106.613281 L 323.761719 106.613281 L 323.761719 281 L 46.261719 281 Z M 46.261719 106.613281 " clip-rule="nonzero"/></clipPath></defs><g clip-path="url(#4b6a2ab994)"><path fill="#e0e721" d="M 310.640625 175.457031 L 298.53125 175.457031 L 298.53125 133.4375 C 298.53125 126.109375 292.597656 120.175781 285.269531 120.175781 L 275.035156 120.175781 C 272.371094 120.175781 269.828125 120.964844 267.769531 122.355469 L 267.769531 119.875 C 267.769531 112.546875 261.835938 106.613281 254.511719 106.613281 L 244.277344 106.613281 C 236.949219 106.613281 231.015625 112.546875 231.015625 119.875 L 231.015625 175.457031 L 139.222656 175.457031 L 139.222656 119.875 C 139.222656 112.546875 133.289062 106.613281 125.960938 106.613281 L 115.730469 106.613281 C 108.402344 106.613281 102.46875 112.546875 102.46875 119.875 L 102.46875 122.355469 C 100.347656 120.964844 97.867188 120.175781 95.203125 120.175781 L 84.910156 120.175781 C 77.582031 120.175781 71.648438 126.109375 71.648438 133.4375 L 71.648438 175.398438 L 59.539062 175.398438 C 52.210938 175.457031 46.277344 181.390625 46.277344 188.71875 L 46.277344 198.953125 C 46.277344 206.277344 52.210938 212.210938 59.539062 212.210938 L 71.648438 212.210938 L 71.648438 254.171875 C 71.648438 261.5 77.582031 267.433594 84.910156 267.433594 L 95.140625 267.433594 C 97.804688 267.433594 100.347656 266.648438 102.40625 265.253906 L 102.40625 267.738281 C 102.40625 275.0625 108.339844 280.996094 115.667969 280.996094 L 125.902344 280.996094 C 133.226562 280.996094 139.160156 275.0625 139.160156 267.738281 L 139.160156 212.152344 L 230.957031 212.152344 L 230.957031 267.738281 C 230.957031 275.0625 236.890625 280.996094 244.214844 280.996094 L 254.449219 280.996094 C 261.777344 280.996094 267.710938 275.0625 267.710938 267.738281 L 267.710938 265.253906 C 269.828125 266.648438 272.3125 267.433594 274.976562 267.433594 L 285.207031 267.433594 C 292.535156 267.433594 298.46875 261.5 298.46875 254.171875 L 298.46875 212.210938 L 310.578125 212.210938 C 317.90625 212.210938 323.839844 206.277344 323.839844 198.953125 L 323.839844 188.71875 C 323.902344 181.390625 317.964844 175.457031 310.640625 175.457031 Z M 71.648438 206.21875 L 59.539062 206.21875 C 55.542969 206.21875 52.273438 202.949219 52.273438 198.953125 L 52.273438 188.71875 C 52.273438 184.722656 55.542969 181.453125 59.539062 181.453125 L 71.648438 181.453125 Z M 102.40625 254.171875 C 102.40625 258.167969 99.136719 261.441406 95.140625 261.441406 L 84.910156 261.441406 C 80.914062 261.441406 77.640625 258.167969 77.640625 254.171875 L 77.640625 133.4375 C 77.640625 129.441406 80.914062 126.171875 84.910156 126.171875 L 95.140625 126.171875 C 99.136719 126.171875 102.40625 129.441406 102.40625 133.4375 Z M 133.226562 267.738281 C 133.226562 271.734375 129.957031 275.003906 125.960938 275.003906 L 115.730469 275.003906 C 111.730469 275.003906 108.460938 271.734375 108.460938 267.738281 L 108.460938 119.875 C 108.460938 115.875 111.730469 112.605469 115.730469 112.605469 L 125.960938 112.605469 C 129.957031 112.605469 133.226562 115.875 133.226562 119.875 Z M 231.015625 206.21875 L 139.222656 206.21875 L 139.222656 196.832031 L 169.558594 196.832031 C 171.191406 196.832031 172.523438 195.5 172.523438 193.867188 C 172.523438 192.230469 171.191406 190.898438 169.558594 190.898438 L 139.222656 190.898438 L 139.222656 181.511719 L 231.015625 181.511719 Z M 261.777344 267.738281 C 261.777344 271.734375 258.507812 275.003906 254.511719 275.003906 L 244.277344 275.003906 C 240.28125 275.003906 237.011719 271.734375 237.011719 267.738281 L 237.011719 119.875 C 237.011719 115.875 240.28125 112.605469 244.277344 112.605469 L 254.511719 112.605469 C 258.507812 112.605469 261.777344 115.875 261.777344 119.875 Z M 292.597656 254.171875 C 292.597656 258.167969 289.328125 261.441406 285.328125 261.441406 L 275.097656 261.441406 C 271.101562 261.441406 267.832031 258.167969 267.832031 254.171875 L 267.832031 133.4375 C 267.832031 129.441406 271.101562 126.171875 275.097656 126.171875 L 285.328125 126.171875 C 289.328125 126.171875 292.597656 129.441406 292.597656 133.4375 Z M 317.90625 198.953125 C 317.90625 202.949219 314.636719 206.21875 310.640625 206.21875 L 298.53125 206.21875 L 298.53125 181.390625 L 310.640625 181.390625 C 314.636719 181.390625 317.90625 184.660156 317.90625 188.660156 Z M 181 196.832031 L 191.296875 196.832031 C 192.929688 196.832031 194.261719 195.5 194.261719 193.867188 C 194.261719 192.230469 192.929688 190.898438 191.296875 190.898438 L 181 190.898438 C 179.367188 190.898438 178.035156 192.230469 178.035156 193.867188 C 178.035156 195.5 179.367188 196.832031 181 196.832031 Z M 181 196.832031 " fill-opacity="1" fill-rule="nonzero"/></g></svg>